<?xml version="1.0" encoding="UTF-8"?>
<svg xmlns="http://www.w3.org/2000/svg" viewBox="0 0 128 128" aria-labelledby="title desc" role="img">
  <title>Breast Cancer Awareness Ribbon</title>
  <desc>Stylized pink ribbon logo</desc>
  <defs>
    <linearGradient id="pinkGradient" x1="0" y1="0" x2="1" y2="1">
      <stop offset="0%" stop-color="#FF69B4"/>
      <stop offset="100%" stop-color="#E91E63"/>
    </linearGradient>
  </defs>
  <!-- Ribbon shape -->
  <path d="M64 10c-12 0-22 10-22 22 0 9 5 17 11 23l-26 42c-2 3-1 7 2 9 3 2 7 1 9-2l23-36 10 15-20 31c-2 3-1 7 2 9 3 2 7 1 9-2l18-28 18 28c2 3 6 4 9 2 3-2 4-6 2-9L86 82l-8-12c10-12 18-24 18-38 0-12-10-22-22-22zm0 14c4 0 8 4 8 8 0 9-6 18-13 27-6-8-11-16-11-23 0-4 4-8 8-8z" fill="url(#pinkGradient)"/>
</svg>
